<svg xmlns="http://www.w3.org/2000/svg" viewBox="0 0 816.5 285.11"><defs><style>.cls-1{fill:#afafaf;}.cls-2{fill:#c6c6c6;}</style></defs><title>cloud1</title><g id="Capa_2" data-name="Capa 2"><g id="Capa_1-2" data-name="Capa 1"><path class="cls-1" d="M716.28,142.59c0-34.4-37.69-62.29-84.19-62.29-23.3,0-44.38,7-59.62,18.32a157,157,0,0,0-44.91-.3c-19.61-11.29-44.25-18-71-18-37.53,0-70.89,13.22-92,33.71a146.44,146.44,0,0,0-61.24-13c-27.42,0-52.62,7.06-72.45,18.86a108.52,108.52,0,0,0-37.73-6.61c-46.49,0-84.19,27.89-84.19,62.29s37.69,62.29,84.19,62.29a113.44,113.44,0,0,0,16.23-1.17c21,21.57,55.26,35.62,93.95,35.62a151.55,151.55,0,0,0,43.14-6.15c19.86,11.85,45.11,18.95,72.6,18.95,31.79,0,60.59-9.49,81.51-24.84A150.19,150.19,0,0,0,549,268.12c55.42,0,101.74-28.82,113.08-67.32C693.75,191.87,716.28,169.18,716.28,142.59Z"/><path class="cls-2" d="M732.32,41.74c-23.3,0-44.38,7-59.62,18.32a157,157,0,0,0-44.91-.3c-19.61-11.29-44.25-18-71-18a151.77,151.77,0,0,0-42,5.82q-4,.3-7.82.85c-21-21.57-55.26-35.62-93.95-35.62a151.55,151.55,0,0,0-43.14,6.15C350,7.1,324.77,0,297.27,0c-31.79,0-60.59,9.49-81.51,24.84A150.19,150.19,0,0,0,167.31,17C111.89,17,65.57,45.82,54.24,84.31,22.53,93.24,0,115.93,0,142.52c0,34.4,37.69,62.29,84.19,62.29,23.3,0,44.38-7,59.62-18.32a155.85,155.85,0,0,0,23.5,1.77,156.21,156.21,0,0,0,21.4-1.47c19.61,11.29,44.25,18,71,18a151.78,151.78,0,0,0,42-5.82q4-.3,7.82-.85c21,21.57,55.26,35.62,93.95,35.62a151.55,151.55,0,0,0,43.14-6.15c19.86,11.85,45.11,18.95,72.6,18.95,31.79,0,60.59-9.49,81.51-24.84a150.19,150.19,0,0,0,48.45,7.85c55.42,0,101.74-28.82,113.08-67.32C794,153.3,816.5,130.62,816.5,104,816.5,69.62,778.81,41.74,732.32,41.74Z"/></g></g></svg>