<svg xmlns="http://www.w3.org/2000/svg" viewBox="0 0 659.9 233.23"><defs><style>.cls-1{fill:#c6c6c6;}.cls-2{fill:#afafaf;}</style></defs><title>cloud2</title><g id="Capa_2" data-name="Capa 2"><g id="Capa_1-2" data-name="Capa 1"><path class="cls-1" d="M607.38,62.29C607.38,27.89,569.68,0,523.19,0c-23.3,0-44.38,7-59.62,18.32a157,157,0,0,0-44.91-.3c-19.61-11.29-44.25-18-71-18-37.53,0-70.89,13.22-92,33.71a146.44,146.44,0,0,0-61.24-13c-27.42,0-52.62,7.06-72.45,18.86A108.52,108.52,0,0,0,84.19,33C37.69,33,0,60.88,0,95.28s37.69,62.29,84.19,62.29a113.44,113.44,0,0,0,16.23-1.17C121.43,178,155.68,192,194.36,192a151.55,151.55,0,0,0,43.14-6.15c19.86,11.85,45.11,18.95,72.6,18.95,31.79,0,60.59-9.49,81.51-24.84a150.19,150.19,0,0,0,48.45,7.85c55.42,0,101.74-28.82,113.08-67.32C584.84,111.57,607.38,88.88,607.38,62.29Z"/><path class="cls-2" d="M659.9,90.71c0-34.4-37.69-62.29-84.19-62.29-23.3,0-44.38,7-59.62,18.32a157,157,0,0,0-44.91-.3c-19.61-11.29-44.25-18-71-18-37.53,0-70.89,13.22-92,33.71a146.44,146.44,0,0,0-61.24-13c-27.42,0-52.62,7.06-72.45,18.86a108.52,108.52,0,0,0-37.73-6.61c-46.49,0-84.19,27.89-84.19,62.29S90.22,186,136.71,186a113.44,113.44,0,0,0,16.23-1.17c21,21.57,55.26,35.62,93.95,35.62A151.55,151.55,0,0,0,290,214.28c19.86,11.85,45.11,18.95,72.6,18.95,31.79,0,60.59-9.49,81.51-24.84a150.19,150.19,0,0,0,48.45,7.85c55.42,0,101.74-28.82,113.08-67.32C637.37,140,659.9,117.3,659.9,90.71Z"/></g></g></svg>